<svg viewBox="0 0 64 64" xmlns="http://www.w3.org/2000/svg">
  <defs>
    <filter id="sh" x="-30%" y="-20%" width="160%" height="160%">
      <feDropShadow dx="0" dy="5" stdDeviation="4" flood-color="#022c22" flood-opacity="0.4"/>
    </filter>
    <linearGradient id="lg" x1="0%" y1="0%" x2="100%" y2="100%">
      <stop offset="0%" stop-color="#a7f3d0"/>
      <stop offset="40%" stop-color="#10b981"/>
      <stop offset="100%" stop-color="#064e3b"/>
    </linearGradient>
    <linearGradient id="lg2" x1="0%" y1="0%" x2="100%" y2="100%">
      <stop offset="0%" stop-color="#6ee7b7"/>
      <stop offset="100%" stop-color="#065f46"/>
    </linearGradient>
  </defs>
  <style>
    #leaf { animation: sway 3.5s ease-in-out infinite; transform-origin: 48px 52px; }
    @keyframes sway { 0%,100%{transform:rotate(-6deg)} 50%{transform:rotate(4deg)} }
  </style>
  <g filter="url(#sh)">
    <g id="leaf">
      <path d="M48 52 C48 52 10 48 8 18 C8 18 36 10 48 32 C52 40 50 48 48 52Z" fill="url(#lg)"/>
      <path d="M48 52 C48 52 10 48 8 18 C8 18 36 10 48 32 C52 40 50 48 48 52Z" fill="url(#lg2)" opacity="0.3"/>
      <path d="M48 52 C38 44 20 35 8 18" stroke="#065f46" stroke-width="1.5" fill="none" opacity="0.6"/>
      <path d="M35 34 C30 30 18 22 12 19" stroke="#065f46" stroke-width="0.8" fill="none" opacity="0.4"/>
      <path d="M42 43 C36 40 24 33 14 26" stroke="#065f46" stroke-width="0.8" fill="none" opacity="0.4"/>
      <ellipse cx="22" cy="26" rx="8" ry="4" fill="rgba(255,255,255,0.25)" transform="rotate(-40 22 26)"/>
    </g>
  </g>
</svg>
