<svg viewBox="0 0 64 64" xmlns="http://www.w3.org/2000/svg">
  <defs>
    <filter id="sh" x="-20%" y="-20%" width="140%" height="140%">
      <feDropShadow dx="0" dy="6" stdDeviation="4" flood-color="#111827" flood-opacity="0.5"/>
    </filter>
    <radialGradient id="rock" cx="38%" cy="30%" r="65%">
      <stop offset="0%" stop-color="#e5e7eb"/>
      <stop offset="50%" stop-color="#9ca3af"/>
      <stop offset="100%" stop-color="#374151"/>
    </radialGradient>
    <radialGradient id="shine" cx="35%" cy="28%" r="35%">
      <stop offset="0%" stop-color="rgba(255,255,255,0.5)"/>
      <stop offset="100%" stop-color="rgba(255,255,255,0)"/>
    </radialGradient>
  </defs>
  <style>
    #stone { animation: float 4s ease-in-out infinite; transform-origin: 32px 42px; }
    @keyframes float { 0%,100%{transform:translateY(0)} 50%{transform:translateY(-3px)} }
  </style>
  <g filter="url(#sh)">
    <g id="stone">
      <path d="M14 48 C10 40 12 28 20 20 C28 12 40 12 48 20 C56 28 54 44 50 50 C44 56 20 56 14 48Z" fill="url(#rock)"/>
      <path d="M14 48 C10 40 12 28 20 20 C28 12 40 12 48 20 C56 28 54 44 50 50 C44 56 20 56 14 48Z" fill="url(#shine)"/>
      <!-- Crack lines -->
      <path d="M28 24 L32 32 L38 36" stroke="#6b7280" stroke-width="1" fill="none" opacity="0.4"/>
      <path d="M22 38 L28 44" stroke="#6b7280" stroke-width="1" fill="none" opacity="0.4"/>
      <path d="M42 26 L38 34" stroke="#6b7280" stroke-width="1" fill="none" opacity="0.4"/>
    </g>
  </g>
</svg>
