<svg viewBox="0 0 64 64" xmlns="http://www.w3.org/2000/svg">
  <defs>
    <filter id="sh" x="-30%" y="-20%" width="160%" height="160%">
      <feDropShadow dx="0" dy="5" stdDeviation="4" flood-color="#022c22" flood-opacity="0.45"/>
    </filter>
    <radialGradient id="soil" cx="40%" cy="35%" r="65%">
      <stop offset="0%" stop-color="#a16207"/>
      <stop offset="100%" stop-color="#3b1507"/>
    </radialGradient>
    <linearGradient id="stem" x1="0%" y1="0%" x2="100%" y2="0%">
      <stop offset="0%" stop-color="#4ade80"/>
      <stop offset="100%" stop-color="#065f46"/>
    </linearGradient>
    <linearGradient id="lf1" x1="0%" y1="0%" x2="100%" y2="100%">
      <stop offset="0%" stop-color="#a7f3d0"/>
      <stop offset="50%" stop-color="#10b981"/>
      <stop offset="100%" stop-color="#064e3b"/>
    </linearGradient>
    <linearGradient id="lf2" x1="100%" y1="0%" x2="0%" y2="100%">
      <stop offset="0%" stop-color="#6ee7b7"/>
      <stop offset="50%" stop-color="#34d399"/>
      <stop offset="100%" stop-color="#065f46"/>
    </linearGradient>
  </defs>
  <style>
    #sw { animation: sway 3s ease-in-out infinite; transform-origin: 32px 57px; }
    @keyframes sway { 0%,100%{transform:rotate(-5deg)} 50%{transform:rotate(5deg)} }
  </style>
  <g filter="url(#sh)">
    <ellipse cx="32" cy="57" rx="20" ry="7" fill="url(#soil)"/>
    <ellipse cx="26" cy="54" rx="7" ry="3" fill="rgba(255,255,255,0.15)"/>
    <g id="sw">
      <path d="M32 57 Q30 47 31 37" stroke="url(#stem)" stroke-width="3.5" fill="none" stroke-linecap="round"/>
      <path d="M31 46 C26 40 14 37 11 28 C20 23 30 33 31 44" fill="url(#lf1)"/>
      <path d="M31 45 C22 38 15 32 11 28" stroke="#065f46" stroke-width="0.8" fill="none" opacity="0.5"/>
      <ellipse cx="19" cy="34" rx="5" ry="2.5" fill="rgba(255,255,255,0.25)" transform="rotate(-35 19 34)"/>
      <path d="M31 41 C37 33 49 28 52 19 C43 16 32 27 31 39" fill="url(#lf2)"/>
      <path d="M31 40 C39 33 46 26 52 19" stroke="#065f46" stroke-width="0.8" fill="none" opacity="0.5"/>
      <ellipse cx="44" cy="27" rx="5" ry="2.5" fill="rgba(255,255,255,0.25)" transform="rotate(35 44 27)"/>
      <ellipse cx="31" cy="36" rx="4.5" ry="5.5" fill="url(#lf1)"/>
      <ellipse cx="30" cy="33" rx="2" ry="1.5" fill="rgba(255,255,255,0.35)"/>
    </g>
  </g>
</svg>
